<svg width="25" height="24" viewBox="0 0 25 24" fill="none" xmlns="http://www.w3.org/2000/svg">
<path fill-rule="evenodd" clip-rule="evenodd" d="M2.5 12C2.5 6.47715 6.97715 2 12.5 2C15.1522 2 17.6957 3.05357 19.5711 4.92893C21.4464 6.8043 22.5 9.34784 22.5 12C22.5 17.5228 18.0228 22 12.5 22C6.97715 22 2.5 17.5228 2.5 12ZM15.5 14C15.9482 14.0234 16.357 13.7454 16.5 13.32C16.5836 13.0614 16.5583 12.78 16.4301 12.5404C16.3018 12.3008 16.0815 12.1238 15.82 12.05L13.5 11.28V7C13.5 6.44772 13.0523 6 12.5 6C11.9477 6 11.5 6.44772 11.5 7V12C11.4989 12.4299 11.7727 12.8124 12.18 12.95L15.18 13.95C15.284 13.9805 15.3916 13.9973 15.5 14Z" fill="#717171"/>
</svg>
