<svg width="111" height="173" viewBox="0 0 111 173" fill="none" xmlns="http://www.w3.org/2000/svg">
<rect x="1.2378" y="172.262" width="171.524" height="108.524" rx="8.65244" transform="rotate(-90 1.2378 172.262)" fill="#F7F7F7"/>
<rect x="1.2378" y="172.262" width="171.524" height="108.524" rx="8.65244" transform="rotate(-90 1.2378 172.262)" stroke="#DDDDDD" stroke-width="0.52439"/>
<rect x="25.887" y="163.71" width="23.4194" height="17.2258" rx="2.80645" transform="rotate(-90 25.887 163.71)" fill="#D3C5C2" stroke="black" stroke-width="0.580645"/>
<path d="M31.5967 164L31.5967 156.645" stroke="black" stroke-width="0.387097"/>
<path d="M43.0166 147.355L41.8618 147.742L40.707 148.129L39.5522 148.129L38.3974 148.129L37.2102 147.742L35.318 148.129L34.1632 148.129L33.0084 148.129L31.4811 147.484" stroke="black" stroke-width="0.387097"/>
<path d="M43.4033 157.032L42.2408 156.645L41.0782 156.258L39.9157 156.258L38.7531 156.258L37.2098 156.645L35.653 156.258L34.4905 156.258L33.3279 156.258L31.4033 156.645" stroke="black" stroke-width="0.387097"/>
<path d="M25.9841 157.032L27.5838 156.258L28.7838 156.258L29.9838 156.258L31.5908 156.645" stroke="black" stroke-width="0.387097"/>
<path d="M31.5967 147.66L31.5967 140" stroke="black" stroke-width="0.387097"/>
<path d="M37.0166 164L37.0166 156.447" stroke="black" stroke-width="0.387097"/>
<path d="M40.6934 156.258L41.0805 154.323L41.0805 152L41.0805 150.065L40.6934 148.129" stroke="black" stroke-width="0.387097"/>
<path d="M28.3066 156.258L27.9195 154.323L27.9195 152L27.9195 150.065L28.3066 148.129" stroke="black" stroke-width="0.387097"/>
<path d="M25.9843 146.581L27.1456 147.355L28.3069 148.129L29.0811 148.129" stroke="black" stroke-width="0.387097"/>
<line x1="37.0164" y1="147.742" x2="37.0164" y2="140" stroke="black" stroke-width="0.387097"/>
<g clip-path="url(#clip0_71_4617)">
<path d="M36.2451 128.323C35.3213 127.351 33.6748 127.389 32.7551 128.314C32.6013 128.468 32.6208 128.724 32.7983 128.85C33.0117 129.003 33.2512 129.175 33.4322 129.304C33.5612 129.396 33.7367 129.392 33.8587 129.291C34.2237 128.988 34.7762 128.988 35.1411 129.291C35.2631 129.392 35.4388 129.396 35.5678 129.304L36.2001 128.852C36.3733 128.728 36.3983 128.476 36.248 128.326C36.247 128.325 36.246 128.324 36.2451 128.323Z" fill="#222222"/>
<path d="M38.3132 125.523C37.2945 124.504 35.9402 123.943 34.4997 123.943C33.0592 123.943 31.7048 124.504 30.6862 125.523C30.5656 125.644 30.4514 125.769 30.3439 125.899C30.2133 126.056 30.2437 126.292 30.4101 126.411C30.6574 126.588 30.8131 126.699 31.0288 126.853C31.1779 126.96 31.3838 126.934 31.5023 126.794C31.5713 126.713 31.644 126.634 31.7204 126.557C32.4628 125.815 33.4498 125.406 34.4997 125.406C35.5496 125.406 36.5366 125.815 37.279 126.557C37.3554 126.634 37.428 126.713 37.497 126.794C37.6156 126.934 37.8214 126.96 37.9706 126.853L38.5894 126.411C38.7558 126.292 38.7861 126.056 38.6555 125.899C38.5479 125.769 38.4338 125.644 38.3132 125.523Z" fill="#222222"/>
<path d="M34.4999 120.287C32.278 120.287 30.1891 121.152 28.618 122.723C28.3807 122.96 28.1598 123.21 27.9553 123.469C27.8311 123.627 27.8639 123.857 28.0273 123.974C28.2658 124.145 28.388 124.232 28.6445 124.416C28.7974 124.525 29.0088 124.495 29.1258 124.347C29.2887 124.142 29.4642 123.945 29.6522 123.757C30.9471 122.462 32.6687 121.749 34.4999 121.749C36.3311 121.749 38.0527 122.462 39.3475 123.757C39.5355 123.945 39.711 124.142 39.8739 124.347C39.9909 124.495 40.2022 124.525 40.3551 124.416L40.9725 123.974C41.136 123.857 41.1687 123.627 41.0444 123.469C40.84 123.21 40.619 122.96 40.3817 122.723C38.8106 121.152 36.7217 120.287 34.4999 120.287Z" fill="#222222"/>
<path d="M34.5 116.63C30.8622 116.63 27.6283 118.358 25.5733 121.037C25.4518 121.196 25.4847 121.423 25.6471 121.539C25.837 121.675 26.0336 121.816 26.2634 121.98C26.4168 122.09 26.6304 122.06 26.7456 121.91C27.0024 121.578 27.2819 121.259 27.584 120.957C29.4313 119.109 31.8875 118.092 34.5 118.092C37.1125 118.092 39.5686 119.109 41.4159 120.957C41.718 121.259 41.9976 121.578 42.2543 121.91C42.3696 122.06 42.5831 122.09 42.7366 121.98L43.3528 121.539C43.5152 121.423 43.5481 121.196 43.4266 121.037C41.3718 118.358 38.1378 116.63 34.5 116.63Z" fill="#222222"/>
<path d="M37.2344 126.513C37.2495 126.528 37.2646 126.542 37.2796 126.557C37.3559 126.634 37.4286 126.713 37.4976 126.794C37.6161 126.934 37.8219 126.96 37.9711 126.853L38.59 126.411C38.7563 126.292 38.7866 126.056 38.6561 125.899C38.5485 125.769 38.4344 125.644 38.3137 125.523C37.7372 124.946 37.053 124.517 36.3066 124.252C36.7335 124.989 37.0445 125.753 37.2344 126.513Z" fill="#222222"/>
<path d="M34.5002 120.287C34.1326 120.287 33.7687 120.311 33.4102 120.358C33.8654 120.68 34.3049 121.05 34.7201 121.465C34.8197 121.564 34.9167 121.666 35.0111 121.768C36.6498 121.888 38.1742 122.584 39.3479 123.757C39.5359 123.945 39.7114 124.142 39.8743 124.347C39.9913 124.495 40.2025 124.525 40.3555 124.416L40.9729 123.974C41.1363 123.857 41.1691 123.627 41.0448 123.469C40.8403 123.21 40.6194 122.96 40.3821 122.723C38.811 121.152 36.7221 120.287 34.5002 120.287Z" fill="#222222"/>
<path d="M29.0967 118.011C29.8767 118.062 30.6821 118.25 31.4758 118.567C32.4398 118.255 33.4572 118.092 34.4998 118.092C37.1123 118.092 39.5684 119.109 41.4157 120.957C41.7178 121.259 41.9974 121.578 42.2541 121.91C42.3694 122.06 42.5829 122.09 42.7364 121.98L43.3526 121.539C43.515 121.423 43.5479 121.196 43.4264 121.037C41.3715 118.358 38.1375 116.63 34.4997 116.63C32.5413 116.63 30.7001 117.131 29.0967 118.011Z" fill="#222222"/>
</g>
<defs>
<clipPath id="clip0_71_4617">
<rect width="18" height="18" fill="white" transform="translate(25.5 132) rotate(-90)"/>
</clipPath>
</defs>
</svg>
