<svg width="25" height="24" viewBox="0 0 25 24" fill="none" xmlns="http://www.w3.org/2000/svg">
<path d="M13.6819 2.7515C13.2133 2.28287 12.4535 2.28287 11.9849 2.7515L3.58487 11.1515C3.11624 11.6201 3.11624 12.3799 3.58487 12.8486C4.0535 13.3172 4.8133 13.3172 5.28193 12.8486L5.6334 12.4971V20.4C5.6334 21.0628 6.17066 21.6 6.8334 21.6H9.2334C9.89614 21.6 10.4334 21.0628 10.4334 20.4V18C10.4334 17.3373 10.9707 16.8 11.6334 16.8H14.0334C14.6961 16.8 15.2334 17.3373 15.2334 18V20.4C15.2334 21.0628 15.7707 21.6 16.4334 21.6H18.8334C19.4961 21.6 20.0334 21.0628 20.0334 20.4V12.4971L20.3849 12.8486C20.8535 13.3172 21.6133 13.3172 22.0819 12.8486C22.5506 12.3799 22.5506 11.6201 22.0819 11.1515L13.6819 2.7515Z" fill="#168E2C"/>
</svg>
