<svg xmlns="http://www.w3.org/2000/svg" width="21" height="20" viewBox="0 0 21 20" fill="none">
  <path d="M14.5469 8.62988H18.2198V15.116H14.5469V8.62988Z" fill="#717171"/>
  <path d="M8.29492 8.62988H11.9678V15.116H8.29492V8.62988Z" fill="#717171"/>
  <path d="M18.9211 16.2881C18.3311 16.2881 2.05231 16.2881 1.33821 16.2881C0.691862 16.2881 0.166016 16.8139 0.166016 17.4603V18.8278C0.166016 19.4742 0.691862 20 1.33821 20H18.9211C19.5675 20 20.0933 19.4742 20.0933 18.8278V17.4603C20.0933 16.8139 19.5675 16.2881 18.9211 16.2881Z" fill="#717171"/>
  <path d="M19.3588 3.67988C10.33 -0.0118684 10.5716 0.0868696 10.5651 0.0842517C10.2865 -0.0272241 9.97674 -0.0294903 9.69018 0.0858927L0.900591 3.67988C0.454258 3.85946 0.166016 4.28606 0.166016 4.76733V6.28512C0.166016 6.93147 0.691862 7.45732 1.33821 7.45732H18.9211C19.5675 7.45732 20.0933 6.93147 20.0933 6.28512V4.76733C20.0933 4.28606 19.8051 3.85946 19.3588 3.67988ZM10.7158 4.3705C10.7158 4.69418 10.4534 4.9566 10.1297 4.9566C9.80599 4.9566 9.54357 4.69418 9.54357 4.3705V3.12016C9.54357 2.79648 9.80599 2.53406 10.1297 2.53406C10.4534 2.53406 10.7158 2.79648 10.7158 3.12016V4.3705Z" fill="#717171"/>
  <path d="M2.04297 8.62988H5.71585V15.116H2.04297V8.62988Z" fill="#717171"/>
</svg>