<svg width="20" height="20" viewBox="0 0 20 20" fill="none" xmlns="http://www.w3.org/2000/svg">
<g clip-path="url(#clip0_287_3311)">
<path d="M17.2248 6.11795V4.67603C17.2248 3.38003 16.1592 2.3125 14.8632 2.3125H3.83856C2.3448 2.3125 1.04688 3.43572 1.04688 4.89873V4.90066V15.1054C1.04688 15.7218 1.16784 16.3439 1.55376 16.8565C1.93776 17.3691 2.60207 17.6879 3.34895 17.6879H16.4952C17.9909 17.6879 19.2869 16.5685 19.2869 15.1054V8.60819C19.2869 7.39089 18.3864 6.41172 17.2248 6.11795ZM15.7675 6.0258H3.83856C3.05327 6.0258 2.50417 5.48627 2.50417 4.89873C2.50417 4.31125 3.05327 3.77172 3.83856 3.77172H14.8632C15.3701 3.77172 15.7675 4.16912 15.7675 4.67603V6.0258Z" fill="#717171"/>
</g>
<defs>
<clipPath id="clip0_287_3311">
<rect width="19.2" height="19.2" fill="white" transform="translate(0.566406 0.400391)"/>
</clipPath>
</defs>
</svg>
